<?xml version="1.0" standalone="no"?>
<!DOCTYPE svg PUBLIC "-//W3C//DTD SVG 20010904//EN"
 "http://www.w3.org/TR/2001/REC-SVG-20010904/DTD/svg10.dtd">
<svg version="1.0" xmlns="http://www.w3.org/2000/svg"
 width="450.000000pt" height="450.000000pt" viewBox="0 0 450.000000 450.000000"
 preserveAspectRatio="xMidYMid meet">
<metadata>
Created by potrace 1.16, written by Peter Selinger 2001-2019
</metadata>
<g transform="translate(0.000000,450.000000) scale(0.100000,-0.100000)"
fill="#000000" stroke="none">
<path d="M1965 3830 c-186 -21 -391 -80 -515 -147 -198 -107 -379 -284 -494
-482 -166 -286 -247 -687 -217 -1074 21 -274 76 -489 180 -702 74 -151 149
-252 282 -380 164 -159 307 -245 544 -326 61 -20 102 -38 92 -38 -24 -1 -12
-20 20 -32 48 -18 277 -39 423 -39 224 0 424 25 455 57 14 14 13 17 -12 30
-15 8 -36 12 -47 9 -51 -13 12 15 119 53 181 65 359 160 477 254 16 13 17 62
18 670 1 361 -2 661 -5 667 -4 6 -23 17 -42 25 -31 13 -118 14 -660 9 l-623
-7 0 -252 c0 -251 0 -252 23 -273 23 -22 36 -23 303 -32 153 -5 291 -10 307
-10 l27 0 0 -179 0 -179 -52 -34 c-114 -75 -259 -137 -382 -165 -160 -36 -376
-14 -508 53 -119 60 -162 106 -257 274 -17 30 -31 48 -31 40 -1 -8 -8 -3 -16
13 -8 15 -12 32 -9 37 3 6 -5 44 -20 85 -50 145 -68 257 -72 455 -4 156 -2
204 16 307 32 190 112 416 141 398 5 -3 7 0 4 8 -7 19 123 157 201 213 123 87
248 124 422 124 259 0 427 -111 509 -336 14 -40 36 -81 48 -92 23 -22 126 -48
135 -34 23 33 90 58 283 107 117 29 214 58 216 63 6 18 -61 208 -103 292 -55
109 -113 187 -210 284 -142 140 -293 224 -484 267 -101 23 -360 33 -486 19z
m1120 -1500 c-150 -10 -1089 -21 -1080 -12 7 7 565 17 980 19 180 0 194 -1
100 -7z m-1560 -1005 c138 -88 254 -124 431 -132 131 -6 217 5 318 39 78 27
205 90 276 138 110 74 106 64 -10 -24 -164 -125 -397 -198 -575 -182 -97 10
-279 53 -342 83 -76 35 -162 102 -212 164 l-44 54 49 -51 c27 -28 76 -68 109
-89z"/>
</g>
</svg>
